HIERARCHY
ROOT Hips
{
	OFFSET 0.00000 0.00000 0.00000
	CHANNELS 6 Xposition Yposition Zposition Zrotation Yrotation Xrotation 
	JOINT LHipJoint
	{
		OFFSET 0 0 0
		CHANNELS 3 Zrotation Yrotation Xrotation
		JOINT LeftUpLeg
		{
			OFFSET 1.64577 -1.42384 0.94276
			CHANNELS 3 Zrotation Yrotation Xrotation
			JOINT LeftLeg
			{
				OFFSET 2.11538 -5.81197 0.00000
				CHANNELS 3 Zrotation Yrotation Xrotation
				JOINT LeftFoot
				{
					OFFSET 2.36541 -6.49893 0.00000
					CHANNELS 3 Zrotation Yrotation Xrotation
					JOINT LeftToeBase
					{
						OFFSET 0.17759 -0.48793 1.73865
						CHANNELS 3 Zrotation Yrotation Xrotation
						End Site
						{
							OFFSET 0.00000 -0.00000 0.91205
						}
					}
				}
			}
		}
	}
	JOINT RHipJoint
	{
		OFFSET 0 0 0
		CHANNELS 3 Zrotation Yrotation Xrotation
		JOINT RightUpLeg
		{
			OFFSET -1.43750 -1.42384 0.94276
			CHANNELS 3 Zrotation Yrotation Xrotation
			JOINT RightLeg
			{
				OFFSET -2.10480 -5.78291 0.00000
				CHANNELS 3 Zrotation Yrotation Xrotation
				JOINT RightFoot
				{
					OFFSET -2.34880 -6.45329 0.00000
					CHANNELS 3 Zrotation Yrotation Xrotation
					JOINT RightToeBase
					{
						OFFSET -0.22842 -0.62757 1.80469
						CHANNELS 3 Zrotation Yrotation Xrotation
						End Site
						{
							OFFSET -0.00000 -0.00000 0.95886
						}
					}
				}
			}
		}
	}
	JOINT LowerBack
	{
		OFFSET 0 0 0
		CHANNELS 3 Zrotation Yrotation Xrotation
		JOINT Spine
		{
			OFFSET 0.06217 1.93758 -0.49272
			CHANNELS 3 Zrotation Yrotation Xrotation
			JOINT Spine1
			{
				OFFSET -0.03114 2.03621 -0.05830
				CHANNELS 3 Zrotation Yrotation Xrotation
				JOINT Neck
				{
					OFFSET 0 0 0
					CHANNELS 3 Zrotation Yrotation Xrotation
					JOINT Neck1
					{
						OFFSET 0.04421 1.41010 0.26562
						CHANNELS 3 Zrotation Yrotation Xrotation
						JOINT Head
						{
							OFFSET -0.13407 1.43847 0.06181
							CHANNELS 3 Zrotation Yrotation Xrotation
							End Site
							{
								OFFSET -0.04980 1.45844 -0.00689
							}
						}
					}
				}
				JOINT LeftShoulder
				{
					OFFSET 0 0 0
					CHANNELS 3 Zrotation Yrotation Xrotation
					JOINT LeftArm
					{
						OFFSET 2.18382 1.47753 -0.35694
						CHANNELS 3 Zrotation Yrotation Xrotation
						JOINT LeftForeArm
						{
							OFFSET 5.05460 -0.00000 0.00000
							CHANNELS 3 Zrotation Yrotation Xrotation
							JOINT LeftHand
							{
								OFFSET 3.39013 -0.00000 0.00000
								CHANNELS 3 Zrotation Yrotation Xrotation
								JOINT LeftFingerBase
								{
									OFFSET 0 0 0
									CHANNELS 3 Zrotation Yrotation Xrotation
									JOINT LeftHandIndex1
									{
										OFFSET 0.57242 -0.00000 -0.00000
										CHANNELS 3 Zrotation Yrotation Xrotation
										End Site
										{
											OFFSET 0.46150 -0.00000 -0.00000
										}
									}
								}
								JOINT LThumb
								{
									OFFSET 0 0 0
									CHANNELS 3 Zrotation Yrotation Xrotation
									End Site
									{
										OFFSET 0.46855 -0.00000 0.46855
									}
								}
							}
						}
					}
				}
				JOINT RightShoulder
				{
					OFFSET 0 0 0
					CHANNELS 3 Zrotation Yrotation Xrotation
					JOINT RightArm
					{
						OFFSET -2.06033 1.72839 -0.47437
						CHANNELS 3 Zrotation Yrotation Xrotation
						JOINT RightForeArm
						{
							OFFSET -5.07010 -0.00000 0.00000
							CHANNELS 3 Zrotation Yrotation Xrotation
							JOINT RightHand
							{
								OFFSET -3.14957 -0.00000 -0.00000
								CHANNELS 3 Zrotation Yrotation Xrotation
								JOINT RightFingerBase
								{
									OFFSET 0 0 0
									CHANNELS 3 Zrotation Yrotation Xrotation
									JOINT RightHandIndex1
									{
										OFFSET -0.71819 -0.00000 -0.00000
										CHANNELS 3 Zrotation Yrotation Xrotation
										End Site
										{
											OFFSET -0.57902 -0.00000 -0.00000
										}
									}
								}
								JOINT RThumb
								{
									OFFSET 0 0 0
									CHANNELS 3 Zrotation Yrotation Xrotation
									End Site
									{
										OFFSET -0.58786 -0.00000 0.58786
									}
								}
							}
						}
					}
				}
			}
		}
	}
}
MOTION
Frames: 12
Frame Time: .0083333
8.3585 15.4458 3.8379 0 0 0 0 0 0 -21 0 0 0 0 0 0 0 0 0 0 0 0 0 0 21 0 0 0 0 0 0 0 0 0 0 0 0 0 0 0 0 0 0 0 0 0 0 -16 0 0 21 0 0 11 0 0 0 -8 0 0 0 0 0 0 0 0 0 0 0 0 0 0 0 0 0 0 0 0 8 0 0 0 0 0 0 0 0 0 0 0 0 0 0 0 0 0
8.3585 15.4458 3.8379 -179.5840 7.0050 177.6900 0.0000 0.0000 0.0000 -17.6819 -15.1698 3.7576 1.3013 7.2270 20.3896 0.0719 18.2653 -26.4542 0.5893 -4.9151 -13.6666 0.0000 0.0000 0.0000 21.4499 15.7738 3.4618 -1.3546 -7.3676 20.8090 -0.6056 -21.9608 -34.7046 -1.4482 7.6072 -21.5271 0.2014 1.9791 7.6951 -1.1436 2.8330 2.8557 -1.5358 1.5075 -1.2925 11.6857 6.2619 -5.9174 -8.7166 8.0522 5.9806 -4.1096 3.9383 3.5726 0.0000 0.0000 0.0000 -85.2850 2.4847 23.7639 13.1488 -21.5049 -2.5076 -0.0000 -0.0000 1.7071 18.2526 6.2000 2.0399 -7.1250 0.0000 -0.0000 -7.1419 36.4254 1.5154 0.0000 0.0000 0.0000 86.4538 -6.3653 28.6898 -18.1538 28.3537 -4.6221 0.0000 -0.0000 -16.1947 -17.5459 4.7834 -1.5103 7.1250 -0.0000 -0.0000 6.8294 -24.9626 3.3317
8.3572 15.4416 3.8387 -179.4760 6.9679 177.7240 0.0000 0.0000 0.0000 -17.5598 -15.2577 3.6061 1.3326 7.3099 20.6367 0.0989 18.1836 -26.5630 0.5840 -4.8931 -13.6038 0.0000 0.0000 0.0000 21.5405 15.5878 3.4437 -1.3375 -7.3228 20.6753 -0.4808 -22.2525 -34.3398 -1.5856 7.9436 -22.5429 0.1317 1.8470 7.6589 -0.9445 2.6538 2.8926 -1.2744 1.4162 -1.2521 10.9872 6.4029 -5.7982 -8.2931 8.2622 5.6770 -3.8602 4.0426 3.4359 0.0000 -0.0000 0.0000 -85.7091 2.4975 22.9305 13.1799 -21.5502 -2.5190 -0.0000 -0.0000 2.1207 18.2487 6.0292 1.9835 -7.1250 0.0000 -0.0000 -7.1238 36.2470 1.5428 0.0000 -0.0000 0.0000 86.0867 -6.2993 29.1694 -18.1168 28.3064 -4.6045 0.0000 -0.0000 -15.9393 -17.2487 4.8566 -1.5057 7.1250 -0.0000 -0.0000 7.0487 -24.8944 3.4515
8.3570 15.4406 3.8399 -179.4510 6.9411 177.7500 0.0000 0.0000 0.0000 -17.5450 -15.3437 3.6362 1.3256 7.2913 20.5814 0.0686 18.3146 -26.4941 0.5972 -4.9473 -13.7583 0.0000 0.0000 0.0000 21.5214 15.3470 3.2484 -1.3518 -7.3601 20.7867 -0.3929 -22.3630 -33.9636 -1.7111 8.2363 -23.4343 0.0623 1.8035 7.6608 -0.8882 2.5906 2.8905 -1.1725 1.3835 -1.2623 10.8873 6.4895 -5.7966 -8.2281 8.3801 5.6425 -3.8166 4.1007 3.4297 0.0000 -0.0000 0.0000 -85.8462 2.5348 22.5210 13.2168 -21.6040 -2.5325 -0.0000 -0.0000 2.3239 18.1972 6.1015 2.0011 -7.1250 0.0000 -0.0000 -7.1757 36.3195 1.5414 0.0000 -0.0000 0.0000 86.1289 -6.3153 29.0059 -18.0824 28.2625 -4.5882 0.0000 -0.0000 -15.3883 -16.7937 4.9535 -1.4927 7.1250 -0.0000 -0.0000 7.3844 -24.8062 3.6337
8.3581 15.4447 3.8399 -179.5270 6.9449 177.7580 0.0000 0.0000 0.0000 -17.6082 -15.2800 3.5922 1.3262 7.2931 20.5866 0.0581 18.3276 -26.4270 0.6269 -5.0665 -14.0983 0.0000 0.0000 0.0000 21.3954 15.2014 3.1291 -1.3587 -7.3782 20.8409 -0.4188 -22.1811 -33.8902 -1.6944 8.1983 -23.3180 -0.0024 1.8449 7.6595 -0.9726 2.6421 2.8962 -1.2272 1.4105 -1.2534 11.0008 6.4654 -5.7849 -8.1271 8.3220 5.5393 -3.8091 4.0765 3.3915 -0.0000 0.0000 0.0000 -85.6721 2.6030 22.7620 13.2886 -21.7086 -2.5591 -0.0000 -0.0000 1.9800 18.2683 6.1049 2.0106 -7.1250 0.0000 -0.0000 -7.1168 36.3271 1.5272 -0.0000 0.0000 0.0000 86.2776 -6.4292 29.0896 -18.2628 28.4923 -4.6739 0.0000 -0.0000 -15.3851 -16.5677 4.7215 -1.4028 7.1250 -0.0000 -0.0000 7.5634 -25.0518 3.6797
8.3585 15.4452 3.8403 -179.5390 6.9262 177.7690 0.0000 0.0000 0.0000 -17.6069 -15.2519 3.5811 1.3209 7.2789 20.5444 0.0442 18.3454 -26.3372 0.6415 -5.1241 -14.2630 0.0000 0.0000 0.0000 21.3531 15.1017 3.0184 -1.3704 -7.4086 20.9317 -0.4522 -22.0332 -33.9041 -1.6705 8.1432 -23.1499 -0.0517 1.8353 7.6634 -0.9835 2.6272 2.9076 -1.2094 1.4035 -1.2458 10.8031 6.4779 -5.7184 -7.8131 8.3237 5.3321 -3.6862 4.0833 3.2965 0.0000 -0.0000 0.0000 -85.6632 2.6641 22.6773 13.3450 -21.7906 -2.5800 -0.0000 -0.0000 1.8965 18.3896 6.0778 2.0160 -7.1250 0.0000 -0.0000 -7.0122 36.3054 1.5082 0.0000 -0.0000 0.0000 86.3352 -6.5224 29.2017 -18.4268 28.7002 -4.7524 0.0000 -0.0000 -15.2296 -16.3827 4.5223 -1.3279 7.1250 -0.0000 -0.0000 7.7112 -25.2620 3.7149
8.3591 15.4455 3.8406 -179.5520 6.9014 177.7740 0.0000 0.0000 0.0000 -17.6022 -15.2115 3.5586 1.3176 7.2702 20.5184 0.0334 18.3385 -26.2391 0.6530 -5.1688 -14.3908 0.0000 0.0000 0.0000 21.3179 15.0310 2.9414 -1.3792 -7.4314 21.0000 -0.5027 -21.8604 -33.9898 -1.6204 8.0262 -22.7936 -0.0845 1.8320 7.6743 -1.0091 2.6221 2.9202 -1.2171 1.4018 -1.2391 10.5738 6.4700 -5.6313 -7.4309 8.2963 5.0765 -3.5413 4.0774 3.1766 0.0000 -0.0000 0.0000 -85.6319 2.7332 22.6372 13.3972 -21.8664 -2.5993 -0.0000 -0.0000 1.7983 18.5645 6.0609 2.0309 -7.1250 0.0000 -0.0000 -6.8641 36.2973 1.4774 0.0000 -0.0000 0.0000 86.4200 -6.6588 29.3150 -18.6775 29.0160 -4.8734 0.0000 -0.0000 -15.1133 -16.2650 4.2726 -1.2452 7.1250 -0.0000 -0.0000 7.8120 -25.5222 3.7165
8.3596 15.4448 3.8405 -179.5550 6.8639 177.7780 0.0000 0.0000 0.0000 -17.5848 -15.1761 3.4936 1.3236 7.2862 20.5660 0.0311 18.2946 -26.1604 0.6620 -5.2038 -14.4906 0.0000 0.0000 0.0000 21.2995 14.9818 2.9121 -1.3811 -7.4364 21.0148 -0.5477 -21.7251 -34.0896 -1.5694 7.9049 -22.4255 -0.1087 1.8227 7.6871 -1.0269 2.6098 2.9360 -1.2209 1.3967 -1.2303 10.3022 6.4571 -5.5325 -7.0175 8.2656 4.7868 -3.3821 4.0698 3.0415 -0.0000 0.0000 0.0000 -85.6265 2.8035 22.5664 13.4375 -21.9248 -2.6144 -0.0000 -0.0000 1.7450 18.7525 6.0364 2.0447 -7.1250 0.0000 -0.0000 -6.7041 36.2822 1.4450 -0.0000 0.0000 0.0000 86.4773 -6.8333 29.4826 -19.0153 29.4376 -5.0383 0.0000 -0.0000 -15.0617 -16.1963 4.0273 -1.1686 7.1250 -0.0000 -0.0000 7.8764 -25.7766 3.7005
8.3600 15.4433 3.8403 -179.5520 6.8135 177.7820 0.0000 0.0000 0.0000 -17.5584 -15.1426 3.4143 1.3326 7.3098 20.6366 0.0318 18.2329 -26.0814 0.6699 -5.2339 -14.5768 0.0000 0.0000 0.0000 21.2962 14.9488 2.9021 -1.3820 -7.4387 21.0216 -0.5734 -21.6624 -34.1640 -1.5428 7.8407 -22.2311 -0.1326 1.8062 7.7016 -1.0307 2.5883 2.9554 -1.2098 1.3869 -1.2195 10.0377 6.4541 -5.4475 -6.6426 8.2517 4.5042 -3.2347 4.0692 2.9143 -0.0000 0.0000 0.0000 -85.6608 2.8672 22.4490 13.4594 -21.9567 -2.6226 -0.0000 -0.0000 1.7597 18.9156 5.9964 2.0502 -7.1250 0.0000 -0.0000 -6.5632 36.2491 1.4197 -0.0000 0.0000 0.0000 86.4955 -7.0349 29.6964 -19.4241 29.9422 -5.2408 0.0000 -0.0000 -15.0809 -16.1534 3.8436 -1.1123 7.1250 -0.0000 -0.0000 7.9187 -25.9667 3.6853
8.3602 15.4415 3.8399 -179.5460 6.7557 177.7860 0.0000 0.0000 0.0000 -17.5289 -15.1093 3.3274 1.3431 7.3374 20.7188 0.0346 18.1606 -26.0052 0.6778 -5.2642 -14.6636 0.0000 0.0000 0.0000 21.2979 14.9094 2.8923 -1.3832 -7.4417 21.0309 -0.5648 -21.6973 -34.1562 -1.5614 7.8855 -22.3667 -0.1583 1.7824 7.7177 -1.0214 2.5573 2.9779 -1.1833 1.3722 -1.2074 9.8068 6.4668 -5.3878 -6.3507 8.2631 4.2625 -3.1152 4.0791 2.8107 0.0000 -0.0000 0.0000 -85.7319 2.9171 22.2970 13.4610 -21.9590 -2.6232 -0.0000 -0.0000 1.8194 18.9947 5.9491 2.0433 -7.1250 0.0000 -0.0000 -6.4916 36.2037 1.4112 0.0000 -0.0000 0.0000 86.4765 -7.2433 29.9383 -19.8746 30.4910 -5.4676 0.0000 -0.0000 -15.1673 -16.1162 3.7693 -1.0882 7.1250 -0.0000 -0.0000 7.9508 -26.0440 3.6860
8.3602 15.4397 3.8393 -179.5470 6.6990 177.7870 0.0000 0.0000 0.0000 -17.5081 -15.0723 3.2437 1.3533 7.3641 20.7988 0.0374 18.0900 -25.9311 0.6888 -5.3060 -14.7833 0.0000 0.0000 0.0000 21.2889 14.8566 2.8718 -1.3857 -7.4483 21.0504 -0.5352 -21.7813 -34.0843 -1.6110 8.0039 -22.7261 -0.1939 1.7492 7.7399 -1.0021 2.5132 3.0040 -1.1401 1.3510 -1.1960 9.6418 6.5010 -5.3678 -6.1932 8.3068 4.0912 -3.0427 4.1019 2.7458 0.0000 -0.0000 0.0000 -85.8344 2.9513 22.1281 13.4453 -21.9362 -2.6173 -0.0000 -0.0000 1.8771 18.9750 5.8945 2.0223 -7.1250 0.0000 -0.0000 -6.5016 36.1454 1.4228 0.0000 -0.0000 0.0000 86.4156 -7.4352 30.2293 -20.3394 31.0491 -5.7054 0.0000 -0.0000 -15.3328 -16.0870 3.7989 -1.0946 7.1250 -0.0000 -0.0000 7.9712 -26.0140 3.7013
8.3602 15.4382 3.8388 -179.5540 6.6537 177.7820 0.0000 0.0000 0.0000 -17.4981 -15.0315 3.1748 1.3624 7.3880 20.8700 0.0402 18.0272 -25.8682 0.7020 -5.3553 -14.9248 0.0000 0.0000 0.0000 21.2690 14.7897 2.8439 -1.3892 -7.4571 21.0769 -0.4933 -21.8842 -33.9636 -1.6798 8.1645 -23.2148 -0.2418 1.7074 7.7706 -0.9761 2.4577 3.0381 -1.0822 1.3243 -1.1818 9.5365 6.5523 -5.3829 -5.8699 8.3556 3.7826 -3.2622 4.1472 2.9405 0.0000 -0.0000 0.0000 -85.9585 2.9671 21.9636 13.4194 -21.8986 -2.6076 -0.0000 -0.0000 1.8986 18.9044 5.8316 1.9928 -7.1250 0.0000 -0.0000 -6.5531 36.0757 1.4453 0.0000 -0.0000 0.0000 86.3196 -7.5869 30.5763 -20.7943 31.5874 -5.9418 0.0000 -0.0000 -15.5711 -16.0916 3.8844 -1.1196 7.1250 -0.0000 -0.0000 7.9630 -25.9257 3.7140
